STARTFONT 2.1
FONT jis.jis9200.24
SIZE 24 72 72
FONTBOUNDINGBOX 24 24 0 -3
STARTPROPERTIES 4
FONT_DESCENT 3
FONT_ASCENT 21
DEFAULT_CHAR 13
COPYRIGHT "Copyright (c) 1992 AT&T - All rights reserved."
ENDPROPERTIES
CHARS 106
STARTCHAR ch-13
ENCODING 13
SWIDTH 1000 0
DWIDTH 24 0
BBX 24 24 0 -3
BITMAP
0601c0
060180
0d0180
0cc18c
0861be
1861f0
100f80
218180
3fc18e
461d8c
86198c
06d98c
7ff98c
06198c
06998c
46dffc
26998c
36998c
370180
060182
07c182
7f0183
3801ff
2000fe
ENDCHAR
STARTCHAR ch-14
ENCODING 14
SWIDTH 1000 0
DWIDTH 24 0
BBX 24 24 0 -3
BITMAP
060400
060700
0d0600
0cc600
086406
186fff
100806
219806
3fd206
462386
860306
06c306
7fe206
060246
068426
46e476
26dfb6
368e06
37080c
06000c
06c00c
ff0018
7800f8
400030
ENDCHAR
STARTCHAR ch-17
ENCODING 17
SWIDTH 1000 0
DWIDTH 24 0
BBX 24 24 0 -3
BITMAP
060000
060806
0d0fff
0ccc00
086c00
186c00
100c00
218c0c
3fcffe
460d0c
860d0c
064d0c
7fec88
060c98
068c98
46ec50
26cc70
368820
371870
061850
0790d8
fe308f
70210e
404606
ENDCHAR
STARTCHAR ch-20
ENCODING 20
SWIDTH 1000 0
DWIDTH 24 0
BBX 24 24 0 -3
BITMAP
0600e0
0600c0
0d00c0
0cc0c0
0868c0
186ed0
100ccc
218cc6
3fccc7
4608c3
8618c0
0650c0
7fe0c8
0600ce
0683cc
46e19c
26c018
368038
370030
066060
0780c0
fe0180
700600
401800
ENDCHAR
STARTCHAR ch-21
ENCODING 21
SWIDTH 1000 0
DWIDTH 24 0
BBX 24 24 0 -3
BITMAP
060000
060018
0d1ffc
0cc318
086318
186318
100318
218318
3fc318
460318
86031a
065fff
7fe318
060318
068318
46e318
26c318
368318
370318
066318
078318
fe031a
703fff
400000
ENDCHAR
STARTCHAR ch-30
ENCODING 30
SWIDTH 1000 0
DWIDTH 24 0
BBX 24 24 0 -3
BITMAP
060400
060700
0d0600
0cc600
086600
186606
100fff
218c06
3fc806
460806
861066
0647f6
7fe006
060006
068006
46e076
26cfc6
368706
370406
06600e
07800c
fe001c
7000f8
400030
ENDCHAR
STARTCHAR ch-41
ENCODING 41
SWIDTH 1000 0
DWIDTH 24 0
BBX 24 24 0 -3
BITMAP
060000
060006
0d1fff
0c8000
08c000
18c80c
100ffe
218c0c
3fcc0c
460c0c
860c0c
064ffc
7fec0c
060c00
068c00
46ec00
26cc00
368c00
370c00
060800
07d800
fe1000
702000
404000
ENDCHAR
STARTCHAR ch-44
ENCODING 44
SWIDTH 1000 0
DWIDTH 24 0
BBX 24 24 0 -3
BITMAP
06080c
060ffe
0d0c0c
0ccc0c
086c0c
186c0c
100c0c
218c0c
3fcffc
460c4c
860c40
064c40
7fec40
060c60
068c20
46ec20
26cc30
368830
371818
061818
07d01c
fe300f
70200e
404006
ENDCHAR
STARTCHAR ch-52
ENCODING 52
SWIDTH 1000 0
DWIDTH 24 0
BBX 24 24 0 -3
BITMAP
060180
060180
0d0340
0cc340
086220
186630
100418
21881c
3fd0cf
462fe6
860000
06c000
7fe00c
061ffe
46430c
26630c
36c30c
37030c
06030c
07c30c
fe033c
700318
400300
000300
ENDCHAR
STARTCHAR ch-55
ENCODING 55
SWIDTH 1000 0
DWIDTH 24 0
BBX 24 24 0 -3
BITMAP
0600e0
0600c0
0d00c0
0cc0c0
0860c0
1860c6
101fff
2180c0
3fc0c0
4600c0
8600c0
06c0c0
ffe8cc
060ffe
068c0c
46ec0c
26cc0c
368c0c
370c0c
066c0c
078c0c
fe0ffc
780c0c
400c0c
ENDCHAR
STARTCHAR ch-63
ENCODING 63
SWIDTH 1000 0
DWIDTH 24 0
BBX 24 24 0 -3
BITMAP
060000
060806
0d0fff
0ccc46
086c46
186c46
100c46
218c46
3fcc46
460c46
860c46
064ffe
7fec46
060c46
068c46
46ec46
26cc46
368c46
370c46
066c46
078c46
fe0ffe
700c06
400000
ENDCHAR
STARTCHAR ch-68
ENCODING 68
SWIDTH 1000 0
DWIDTH 24 0
BBX 24 24 0 -3
BITMAP
0601c0
061180
0d1d80
0c9980
08d980
18d98c
101ffe
219180
3fd180
462180
860180
066186
ffffff
060340
068340
46e340
26c620
368620
370430
060c10
078818
fe100f
70200e
40c006
ENDCHAR
STARTCHAR ch-69
ENCODING 69
SWIDTH 1000 0
DWIDTH 24 0
BBX 24 24 0 -3
BITMAP
060000
060806
0d0fff
0ccc00
086c00
186c00
100c00
218c0c
3fcffe
460c0c
860c0c
064c0c
7fec0c
060c0c
068ffc
46ec0c
26cc00
368c00
370c00
066c00
078c00
fe0c06
700fff
400c00
ENDCHAR
STARTCHAR ch-72
ENCODING 72
SWIDTH 1000 0
DWIDTH 24 0
BBX 24 24 0 -3
BITMAP
0600e0
0600c0
0d00c0
0cc8c0
0868c6
186fff
101806
219804
3fc008
460380
860300
06430c
7fe31e
060370
068380
46e300
26c300
368300
370302
066302
078302
fe0303
7003ff
4001fe
ENDCHAR
STARTCHAR ch-73
ENCODING 73
SWIDTH 1000 0
DWIDTH 24 0
BBX 24 24 0 -3
BITMAP
0600e0
0600c0
0d00c0
0c80c0
08c0c6
187fff
106100
2181c0
3fc180
460100
860a10
06441c
7fe638
060330
068330
46e060
26c040
3680c0
370088
066104
078206
fe3ffb
701f03
401003
ENDCHAR
STARTCHAR ch-75
ENCODING 75
SWIDTH 1000 0
DWIDTH 24 0
BBX 24 24 0 -3
BITMAP
060200
060380
0d0300
0cc300
08660c
1867fe
10040c
21880c
3fcfcc
4610cc
8600cc
0640cc
7fe8cc
060fcc
068c0c
46ec0c
26cc3c
368c18
370c02
060c02
06ec02
ff0c03
780fff
4007fe
ENDCHAR
STARTCHAR ch-80
ENCODING 80
SWIDTH 1000 0
DWIDTH 24 0
BBX 24 24 0 -3
BITMAP
060000
060006
0d1fff
0cc180
086180
186180
100180
218180
3fc380
460300
860300
064306
7fe3ff
060706
068706
46ef06
26cb06
369306
372306
060306
07c306
fe03fe
700306
400306
ENDCHAR
STARTCHAR ch-87
ENCODING 87
SWIDTH 1000 0
DWIDTH 24 0
BBX 24 24 0 -3
BITMAP
06071c
060618
0d0618
0cc618
086618
18661a
101fff
218618
3fc618
460618
860618
064618
7fe618
0607f8
068618
46e618
26c618
368618
370618
066618
078618
fe07f8
700618
400618
ENDCHAR
STARTCHAR ch-90
ENCODING 90
SWIDTH 1000 0
DWIDTH 24 0
BBX 24 24 0 -3
BITMAP
0c0200
0c1700
1a1c26
19903f
10d3a6
30d326
201326
431326
7f9326
8c1326
0c1326
0c9326
ffd326
0c1326
0d1326
8dd326
4dbf26
6d1b26
6e133e
0c062c
0f8620
fe0c20
701820
406020
ENDCHAR
STARTCHAR ch-91
ENCODING 91
SWIDTH 1000 0
DWIDTH 24 0
BBX 24 24 0 -3
BITMAP
060210
060390
0d0310
0cc310
086318
186608
10060c
21840f
3fcc06
460806
861000
06c000
7fe40c
0607fe
06860c
46e60c
26c60c
36860c
37060c
06060c
06e60c
ff07fc
78060c
400000
ENDCHAR
STARTCHAR ch-94
ENCODING 94
SWIDTH 1000 0
DWIDTH 24 0
BBX 24 24 0 -3
BITMAP
060070
06006c
0d0066
0cc066
086060
186866
100fff
218c60
3fcc60
460c64
860c67
064c66
7fec66
060c2c
068c2c
46ec38
26cc10
368c32
370d3a
060e6a
07bc4e
fe1886
701107
400603
ENDCHAR
STARTCHAR ch-98
ENCODING 98
SWIDTH 1000 0
DWIDTH 24 0
BBX 24 24 0 -3
BITMAP
0601c0
060180
0d0180
0c8180
08c180
18c186
103fff
218180
3fc180
4603c0
8603c0
06c7a0
7fe5a0
060d90
068998
46d98c
26918f
372ff6
364180
060180
078180
fe0180
700180
400180
ENDCHAR
STARTCHAR ch-100
ENCODING 100
SWIDTH 1000 0
DWIDTH 24 0
BBX 24 24 0 -3
BITMAP
060400
060700
0d0600
0cc600
086606
186fff
100c06
218806
3fc866
4617f6
860666
064666
7fe666
060666
068666
46e666
26c7e6
368666
370006
06600e
07800c
fe001c
7000f8
400030
ENDCHAR
STARTCHAR ch-102
ENCODING 102
SWIDTH 1000 0
DWIDTH 24 0
BBX 24 24 0 -3
BITMAP
060000
060006
0d1fff
0cc0c0
0860c0
1860c0
1000c0
218ec0
3fccc0
460cc0
860ccc
06ccfe
7fecc0
060cc0
468cc0
26ecc0
36ccc0
368cc0
370cc0
060cc0
06ccc6
ff0cc6
787fff
400000
ENDCHAR
STARTCHAR ch-113
ENCODING 113
SWIDTH 1000 0
DWIDTH 24 0
BBX 24 24 0 -3
BITMAP
0600e0
0600c0
0d00c0
0c80c0
08d0c6
18dfff
101800
219800
3fd880
4618e0
8618c0
0698c0
7fd8c0
0618c0
069980
46d980
269980
36b110
373108
06220c
07e206
fe5ffe
788f06
400806
ENDCHAR
STARTCHAR ch-126
ENCODING 126
SWIDTH 1000 0
DWIDTH 24 0
BBX 24 24 0 -3
BITMAP
060100
0601c0
0d0180
0cc110
086108
18620c
101ff6
218f06
3fc800
4600e0
8604c0
06c6cc
7fe7fe
060cc0
0688c0
46d0c0
26c0c6
36bfff
3700c0
0600c0
07c0c0
fe00c0
7000c0
4000c0
ENDCHAR
STARTCHAR ch-128
ENCODING 128
SWIDTH 1000 0
DWIDTH 24 0
BBX 24 24 0 -3
BITMAP
060000
06080c
0d0ffe
0ccc0c
086c0c
186c0c
100ffc
218c0c
3fcc0c
460c0c
860ffc
06cc8c
7fec80
060c84
068c87
46ec4e
26cc58
368c60
370c20
060c30
07ccd8
7e3f1f
381c0e
201006
ENDCHAR
STARTCHAR ch-131
ENCODING 131
SWIDTH 1000 0
DWIDTH 24 0
BBX 24 24 0 -3
BITMAP
0600e0
0600c0
0d00c0
0cc0c6
087fff
186100
1001c0
218190
3fc108
46020c
861ff6
064f06
7fe800
060238
0683b0
46e330
26c330
368330
370330
066632
078632
fe0c33
70183f
40601e
ENDCHAR
STARTCHAR ch-133
ENCODING 133
SWIDTH 1000 0
DWIDTH 24 0
BBX 24 24 0 -3
BITMAP
0c1006
0c1fff
0a1806
199806
18d866
10dbf6
301806
231806
7f9806
4c1926
8c19f6
0d9926
ffd926
0c1926
0c9926
8cd926
4d99e6
6d1926
6e1806
0cd806
0f1806
fc1806
70183e
40180c
ENDCHAR
STARTCHAR ch-145
ENCODING 145
SWIDTH 1000 0
DWIDTH 24 0
BBX 24 24 0 -3
BITMAP
0600e0
0608c0
0d0ec0
0cccc0
086ccc
186ffe
1008c0
2188c0
3fd0c0
4600c0
8600c6
06dfff
7fe330
060330
068330
46e330
26c330
368330
370632
060632
07cc32
fe1833
70303f
40c01e
ENDCHAR
STARTCHAR ch-147
ENCODING 147
SWIDTH 1000 0
DWIDTH 24 0
BBX 24 24 0 -3
BITMAP
0600c0
0600c0
0d01a0
0cc1a0
086110
186318
10020c
21840f
3fc806
461000
8607fc
0640c0
7fe0c0
0600c0
0680cc
46effe
26c0c0
3680c0
3700c0
0660c0
0780c0
fe00c6
701fff
400000
ENDCHAR
STARTCHAR ch-149
ENCODING 149
SWIDTH 1000 0
DWIDTH 24 0
BBX 24 24 0 -3
BITMAP
0c01c0
0c0180
1a0186
19bfff
10c180
30c18c
201ffe
43018c
7f918c
8c1ffc
0c198c
0c9980
ffd986
0c1fff
0d1b46
8dc346
4d8346
6d065e
6e062c
0c0420
0f8c30
fe081e
70101c
40600c
ENDCHAR
STARTCHAR ch-150
ENCODING 150
SWIDTH 1000 0
DWIDTH 24 0
BBX 24 24 0 -3
BITMAP
0600e0
0608c0
0d0ec0
0cccc0
086ccc
186ffe
100cc0
2188c0
3fc8c0
4610c0
8600c6
065fff
7fe1d0
0601d0
0683d0
46e3d0
26c2d8
3686c8
3704cc
066ccc
0788cf
fe10c6
7060c6
4000c0
ENDCHAR
STARTCHAR ch-152
ENCODING 152
SWIDTH 1000 0
DWIDTH 24 0
BBX 24 24 0 -3
BITMAP
060200
060380
0d0300
0cc30c
0863fe
18660c
100418
218e18
3fc9b0
4611b0
860060
06c0c0
7fe080
060106
0643ff
466706
26cb06
36b306
370306
060306
07c306
fe03fe
700306
400306
ENDCHAR
STARTCHAR ch-154
ENCODING 154
SWIDTH 1000 0
DWIDTH 24 0
BBX 24 24 0 -3
BITMAP
060360
060240
0d0240
0c8240
08c244
18d247
101a46
218a4c
3fca58
460260
860240
06c240
7fe260
060658
068a4c
46fa46
26b246
372640
360442
06cc42
0f1843
fc307f
70603e
418000
ENDCHAR
STARTCHAR ch-155
ENCODING 155
SWIDTH 1000 0
DWIDTH 24 0
BBX 24 24 0 -3
BITMAP
060018
06007c
0d01f0
0ccfc0
0860c0
1860c0
1000c0
2180c6
3fdfff
4600c0
8600c0
0640c0
7fe0c0
0608cc
068ffe
46ec0c
26cc0c
368c0c
370c0c
066c0c
078c0c
fe0ffc
700c0c
400c0c
ENDCHAR
STARTCHAR ch-156
ENCODING 156
SWIDTH 1000 0
DWIDTH 24 0
BBX 24 24 0 -3
BITMAP
081800
0e180c
1c347e
183200
302300
606180
884180
0e8006
0d7eff
181818
181818
381b18
59ff98
981818
181918
191998
189998
18d918
18da18
181818
181f98
1bf818
19c078
190030
ENDCHAR
STARTCHAR ch-173
ENCODING 173
SWIDTH 1000 0
DWIDTH 24 0
BBX 24 24 0 -3
BITMAP
0603a0
060318
0d0308
0cc306
087fff
186300
100300
21830c
3fdffe
460300
860300
066306
7fffff
060310
06831c
46e198
26c1b0
3680e0
3700c2
0661e2
078332
fe061f
70180f
406006
ENDCHAR
STARTCHAR ch-183
ENCODING 183
SWIDTH 1000 0
DWIDTH 24 0
BBX 24 24 0 -3
BITMAP
0600e4
0610c7
0d08c6
0ccccc
0866c8
1866d0
1000c0
2188c6
3fcfff
460c06
860c06
064c06
7feffe
060c06
068c06
46ec06
26cffe
368c06
370c06
066c06
078c06
fe0c06
700c3e
400c0c
ENDCHAR
STARTCHAR ch-185
ENCODING 185
SWIDTH 1000 0
DWIDTH 24 0
BBX 24 24 0 -3
BITMAP
060018
0600fc
0d0fc0
0cc0c0
0860c6
187fff
1003d0
2183d0
3fc6c8
4604cc
8608c7
065006
7fe030
060ff8
068330
46e336
26c33f
368606
370606
066406
078c0e
fe080c
70107c
402018
ENDCHAR
STARTCHAR ch-207
ENCODING 207
SWIDTH 1000 0
DWIDTH 24 0
BBX 24 24 0 -3
BITMAP
0600e0
0600c0
0d00c0
0cc0c6
087fff
1860c0
1008c8
218ccc
3fcccc
4608c8
860ccc
064aca
7fead3
0611e3
0681a0
46e1a0
26c1a0
368330
370310
066218
07861c
fe040f
70080e
403006
ENDCHAR
STARTCHAR ch-210
ENCODING 210
SWIDTH 1000 0
DWIDTH 24 0
BBX 24 24 0 -3
BITMAP
060200
060318
0d03fc
0c8618
08c530
18c960
1010c0
2181e0
3fc338
4c061f
8c18c6
0cc0c0
ffeffc
0c00c0
0d00c0
8dcffc
4d80c0
6d00c0
6e3fff
0c00c0
0fc0c0
fe00c0
7800c0
4000c0
ENDCHAR
STARTCHAR ch-228
ENCODING 228
SWIDTH 1000 0
DWIDTH 24 0
BBX 24 24 0 -3
BITMAP
0c0070
0c4460
1a7e60
1b4460
134460
304460
224466
7f47ff
487c66
884466
094466
ffc466
084466
084466
8a7c66
4b4466
6a44c6
6c44c6
6846c6
0a5d8e
0df18c
f8c30c
60867c
401818
ENDCHAR
STARTCHAR ch-233
ENCODING 233
SWIDTH 1000 0
DWIDTH 24 0
BBX 24 24 0 -3
BITMAP
06071c
060618
0d061a
0cdfff
086618
186618
100618
218000
3fc0e0
4600c0
8600c6
065fff
7fe600
060600
068600
46e600
26c600
368600
370600
066600
078600
fe07fe
7003fe
400000
ENDCHAR
STARTCHAR ch-234
ENCODING 234
SWIDTH 1000 0
DWIDTH 24 0
BBX 24 24 0 -3
BITMAP
0600e8
0600c6
0d00c6
0cc0c0
087fff
1860c0
1000c0
2188c4
3fcffe
4608c4
8608c4
0648c4
7feffc
0608c4
0688c4
46e8c4
26cffc
3688c4
3708c4
0608c4
07c8c4
fe08c4
7008dc
4008cc
ENDCHAR
STARTCHAR ch-237
ENCODING 237
SWIDTH 1000 0
DWIDTH 24 0
BBX 24 24 0 -3
BITMAP
060810
06061c
0d0318
0cc330
086020
18684c
100ffe
218c0c
3fcc0c
460c0c
860c0c
06cc0c
7feffc
060060
068460
46e760
26c660
368660
370662
060c62
06cc63
ff187f
78303e
40c000
ENDCHAR
STARTCHAR ch-242
ENCODING 242
SWIDTH 1000 0
DWIDTH 24 0
BBX 24 24 0 -3
BITMAP
060018
06007c
0d09e0
0ccf00
086c00
186c00
100c0c
218ffe
3fcc30
460c30
860c30
06cc30
7fec30
060c30
064c36
467fff
26c000
368000
370820
060e18
07cc0c
fe180e
783006
40c006
ENDCHAR
STARTCHAR ch-243
ENCODING 243
SWIDTH 1000 0
DWIDTH 24 0
BBX 24 24 0 -3
BITMAP
0601c0
060180
0d0184
0cdffe
086180
186188
100ffc
218180
3fc180
460184
861ffe
06c300
7fe30c
06030c
06bfff
46c60c
26c60c
36850c
370c8c
0608cc
07d0cc
fe200c
70c07c
400018
ENDCHAR
STARTCHAR ch-248
ENCODING 248
SWIDTH 1000 0
DWIDTH 24 0
BBX 24 24 0 -3
BITMAP
060806
060fff
0d0c06
0ccc06
086c06
186c06
100ffe
218c06
3fcc70
460c60
860c66
06cfff
7fec60
060c60
068c60
46ee66
26cbff
369b06
371b06
061306
06f306
ff2306
7843fe
408306
ENDCHAR
STARTCHAR ch-250
ENCODING 250
SWIDTH 1000 0
DWIDTH 24 0
BBX 24 24 0 -3
BITMAP
0c00e0
0c00c0
1a08c0
1988c6
10dfff
30d806
203004
433e00
7f8c4c
8c0c7e
0c0f4c
0c894c
ffc94c
0c094c
0d1d4c
8dd74c
4da25c
6d024c
6e0640
0c0442
0f8c42
fe0843
70107f
40603e
ENDCHAR
STARTCHAR ch-252
ENCODING 252
SWIDTH 1000 0
DWIDTH 24 0
BBX 24 24 0 -3
BITMAP
0c2006
0c3fff
0a3006
193426
19b236
11b336
303326
233046
7fbffe
4c3086
8c3086
0cb496
fff496
0c3496
0d3496
8db496
4db496
6d3496
6e37f6
0cb416
0f3406
fc3006
70303e
40300c
ENDCHAR
STARTCHAR ch-262
ENCODING 262
SWIDTH 1000 0
DWIDTH 24 0
BBX 24 24 0 -3
BITMAP
0600e0
0600c0
0d00c2
0cdfff
0860c0
1860c4
100ffe
2180c0
3fc0c2
461fff
860000
06c80c
7feffe
060c0c
068c0c
46effc
26cc0c
368c0c
370ffc
060c0c
066c0c
ff8c0c
780c7c
400c18
ENDCHAR
STARTCHAR ch-271
ENCODING 271
SWIDTH 1000 0
DWIDTH 24 0
BBX 24 24 0 -3
BITMAP
0c0000
0c0006
1a3fff
198330
10c330
30c330
200330
431336
7f9f3f
8c1806
0c1806
0c9806
ffd806
0c1806
0d1f3e
8ddb36
4d8330
6d0330
6e0330
0c0330
0f8330
fe0336
707fff
400000
ENDCHAR
STARTCHAR ch-272
ENCODING 272
SWIDTH 1000 0
DWIDTH 24 0
BBX 24 24 0 -3
BITMAP
060200
0603a0
0d0338
0cc330
086620
186446
100fff
218c40
3fdc40
462c40
864c4c
060ffe
7fec40
060c40
068c40
46ec4c
26cffe
368c40
370c40
060c40
06cc40
ff0c46
780fff
400c00
ENDCHAR
STARTCHAR ch-280
ENCODING 280
SWIDTH 1000 0
DWIDTH 24 0
BBX 24 24 0 -3
BITMAP
060018
0600fc
0d0fc0
0cc0c0
0860c0
1860cc
101ffe
2184c8
3fc4c8
4604c8
8604ca
063fff
7fc4c8
0604c8
0684c8
46e4c8
26c4c8
369ffe
3700c0
0600c0
06c0c0
ff00c6
783fff
400000
ENDCHAR
STARTCHAR ch-281
ENCODING 281
SWIDTH 1000 0
DWIDTH 24 0
BBX 24 24 0 -3
BITMAP
060222
060333
0d0666
0c8444
08c888
18d110
100888
218444
3fc666
460333
860333
064000
7fe806
060fff
068c46
46ec46
26cc46
368ffe
370c46
066c46
078c46
fe0c46
700ffe
400c06
ENDCHAR
STARTCHAR ch-282
ENCODING 282
SWIDTH 1000 0
DWIDTH 24 0
BBX 24 24 0 -3
BITMAP
06000c
06007e
0d0fe0
0cc108
0868ce
18664c
100208
218010
3fc7fe
4600c6
8600c6
0640c6
7fefff
0600c6
0680c6
46e0c6
26c7fe
3680c6
3700c0
0660c0
0780c0
fe00c0
7007c0
400180
ENDCHAR
STARTCHAR ch-288
ENCODING 288
SWIDTH 1000 0
DWIDTH 24 0
BBX 24 24 0 -3
BITMAP
0600e0
0600c0
0d08c0
0c88c6
08cfff
18d806
101804
218000
3fc006
461fff
8600c0
06c0c0
7fe0c0
0608cc
068efe
46ecc0
26ccc0
368cc0
370cc0
060ac0
0799c0
fe10e0
70207f
40c01e
ENDCHAR
STARTCHAR ch-290
ENCODING 290
SWIDTH 1000 0
DWIDTH 24 0
BBX 24 24 0 -3
BITMAP
0603b0
060310
0d0304
0cc31e
0861e0
186f8c
100098
218070
3fc0c2
460332
861c1f
064067
7fe320
06030e
0683f0
46ef00
26c118
3681b0
3700a0
0660c2
078162
fe023a
700c1f
403007
ENDCHAR
STARTCHAR ch-291
ENCODING 291
SWIDTH 1000 0
DWIDTH 24 0
BBX 24 24 0 -3
BITMAP
0c0186
0c1fff
1a0186
198924
10c71c
30c208
20030c
430596
7f89a6
8c1040
0c0000
0cc306
ffffff
0c0246
0d1246
8dcc24
4d862c
6d0b28
6e0990
0c11a8
0f902c
fe204f
704086
400106
ENDCHAR
STARTCHAR ch-294
ENCODING 294
SWIDTH 1000 0
DWIDTH 24 0
BBX 24 24 0 -3
BITMAP
060100
0601c0
0d098c
0c8ffe
08cc0c
18cc0c
100ffc
218c0c
3fcc0c
4c0ffc
8c00c0
0d80c0
7fd0c6
0c1fff
0d18c6
8dd8c6
4d98c6
6d18c6
6e18c6
0c18c6
0f98de
fc18cc
7000c0
4000c0
ENDCHAR
STARTCHAR ch-296
ENCODING 296
SWIDTH 1000 0
DWIDTH 24 0
BBX 24 24 0 -3
BITMAP
06039c
060318
0d0318
0cc31a
087fff
186318
100318
218318
3fc000
460806
860fff
06cc46
7fec46
060c46
068c46
46effe
26cc46
368c46
370c46
060c46
07cc46
7e0ffe
380c06
200c06
ENDCHAR
STARTCHAR ch-299
ENCODING 299
SWIDTH 1000 0
DWIDTH 24 0
BBX 24 24 0 -3
BITMAP
060818
060ffc
0d0c18
0ccc18
086c18
186ff8
118c18
3fcc18
4c0c18
8c0ff8
0cc300
ffe206
0c07ff
0d0496
0dc916
8d9126
4d6226
6e0446
6c0886
0c3106
0f820e
fe040c
70187c
400018
ENDCHAR
STARTCHAR ch-300
ENCODING 300
SWIDTH 1000 0
DWIDTH 24 0
BBX 24 24 0 -3
BITMAP
0c01c0
0c0180
0a0186
197fff
198180
118180
303ffc
23318c
7fb18c
4c318c
8c3ffc
0db18c
fff18c
0c318c
0c3ffc
8d07c0
4d8da0
6d0da0
6e0990
0c1998
0f918f
fc218e
70c186
400180
ENDCHAR
STARTCHAR ch-302
ENCODING 302
SWIDTH 1000 0
DWIDTH 24 0
BBX 24 24 0 -3
BITMAP
060806
060fff
0d0c06
0ccc06
086c66
186c46
100c46
218ffe
3fcc46
460c46
860c46
064d56
7fedf6
060d16
068d16
46ed16
26cd16
368df6
370d16
066c06
078c06
fe0c06
700ffe
400c06
ENDCHAR
STARTCHAR ch-303
ENCODING 303
SWIDTH 1000 0
DWIDTH 24 0
BBX 24 24 0 -3
BITMAP
06039c
060318
0d0318
0cc318
086ffe
186318
100318
218318
3fc318
460318
861fff
06c000
7fe000
04040c
0687fe
46e60c
26c60c
36860c
3707fc
06060c
06e60c
ff060c
7807fc
40060c
ENDCHAR
STARTCHAR ch-306
ENCODING 306
SWIDTH 1000 0
DWIDTH 24 0
BBX 24 24 0 -3
BITMAP
060030
0607f8
0d0030
0cc030
086030
1867f0
100030
218030
3fc036
461fff
8600c0
06c8c2
7fe4c3
0606c6
0646e8
4660e0
26c0d0
3701d0
3606d8
063ccf
0798ce
fe10c6
7007c0
400180
ENDCHAR
STARTCHAR ch-309
ENCODING 309
SWIDTH 1000 0
DWIDTH 24 0
BBX 24 24 0 -3
BITMAP
0c0738
0c0630
1a0636
19bfff
10c630
30c630
200630
430000
7f8470
8c0760
0c0664
0c8c67
ffcc66
0c1c6c
0d2c70
8dcc60
4d8c60
6d0c60
6e0c62
0c0c62
0f8c62
fe0c63
700c7f
400c3e
ENDCHAR
STARTCHAR ch-314
ENCODING 314
SWIDTH 1000 0
DWIDTH 24 0
BBX 24 24 0 -3
BITMAP
0c0738
0c0630
1a0636
19bfff
10c630
30c630
200630
4301c0
7f8180
8c0186
0c3fff
0c8300
ffc300
0c030c
0d03fe
8dc30c
4d870c
6d060c
6e060c
0c0c0c
0f8c1c
fe1818
7030f8
40c030
ENDCHAR
STARTCHAR ch-315
ENCODING 315
SWIDTH 1000 0
DWIDTH 24 0
BBX 24 24 0 -3
BITMAP
0c0070
0c0068
1a0264
199f66
10c066
30c060
200066
433fff
7f8060
8c0260
0c0260
0c9260
ffd260
0c1260
0d13e0
8dd230
4d9230
6d1232
6e1212
0c13da
0fbf0a
fe1c0e
701007
400003
ENDCHAR
STARTCHAR ch-324
ENCODING 324
SWIDTH 1000 0
DWIDTH 24 0
BBX 24 24 0 -3
BITMAP
0600e0
0600c0
0d00c0
0cc0c6
087fff
186000
10080c
218ffe
3fcc0c
460c0c
860c0c
064c0c
7feffc
060ccc
0680c0
46e8c0
26ced0
368cc8
370ccc
0618c6
0790c6
fe20c6
7007c0
400180
ENDCHAR
STARTCHAR ch-331
ENCODING 331
SWIDTH 1000 0
DWIDTH 24 0
BBX 24 24 0 -3
BITMAP
060818
060ffc
0d0c18
0c8c18
08cc18
18ccf8
100c98
230c98
3f8c98
4c2c9a
8c3fff
0cb006
7ff006
0c33e6
0d3226
8db226
4d3226
6d3226
6e33e6
0c3006
0fb006
fc3006
70303e
40300c
ENDCHAR
STARTCHAR ch-333
ENCODING 333
SWIDTH 1000 0
DWIDTH 24 0
BBX 24 24 0 -3
BITMAP
0c01c0
0c0180
1a2186
193fff
11b000
31b110
203112
433fff
7fb110
883110
083110
09b1f0
fff000
08300c
093ffe
89b20c
4b3218
6a2130
6c6160
0940c0
0e41b0
fc831f
710c0e
403006
ENDCHAR
STARTCHAR ch-340
ENCODING 340
SWIDTH 1000 0
DWIDTH 24 0
BBX 24 24 0 -3
BITMAP
061326
061fbf
0d1326
0c9326
08d326
18d326
101f3e
218000
3fc008
460ffc
860000
06c002
7fffff
060600
06860c
46e7fe
26cc0c
368c0c
37000c
06001c
07c018
fe0038
7001f0
400060
ENDCHAR
STARTCHAR ch-342
ENCODING 342
SWIDTH 1000 0
DWIDTH 24 0
BBX 24 24 0 -3
BITMAP
0c071c
0c0618
0a061a
19bfff
18c618
10c618
3007f8
230618
7f8618
8c0618
0c07f8
0c8618
ffc618
0c061a
0d3fff
8dd998
4d9998
6d1918
6e1b1f
0cda0f
0f1c00
fc1802
701fff
401800
ENDCHAR
STARTCHAR ch-347
ENCODING 347
SWIDTH 1000 0
DWIDTH 24 0
BBX 24 24 0 -3
BITMAP
0c0300
0c1798
0a1cfc
199098
18d098
10d098
301098
231f9f
7f910f
8c1200
0c1000
0d9000
ffdf0c
0c11fe
0d108c
8dd088
4d9058
6d1250
6e1c20
0cf030
0f7058
fc504c
70108f
401306
ENDCHAR
STARTCHAR ch-348
ENCODING 348
SWIDTH 1000 0
DWIDTH 24 0
BBX 24 24 0 -3
BITMAP
0c230c
0c3f7e
1a330c
19330c
11b30c
31b30c
20330c
423f7c
7f3000
883000
08300c
0932fe
ffbf4c
08304c
0a304c
8bb06c
4b3228
6a3f28
6c3038
083010
0f3038
fc302c
70304f
403186
ENDCHAR
STARTCHAR ch-352
ENCODING 352
SWIDTH 1000 0
DWIDTH 24 0
BBX 24 24 0 -3
BITMAP
0c0080
0c00e0
1a00c0
19888c
10cffe
30cc0c
200c0c
430ffc
7f8c0c
8c0c0c
0c0c0c
0c8ffc
ffc000
0c0000
0d1ffe
8dc0c0
4d80c0
6d00c8
6e0ffc
0c00c0
0f80c0
fe00c6
703fff
400000
ENDCHAR
STARTCHAR ch-364
ENCODING 364
SWIDTH 1000 0
DWIDTH 24 0
BBX 24 24 0 -3
BITMAP
0c0670
0c1f60
0a7060
191060
199064
119167
301166
20ff66
7f1164
4c1368
8c1360
0c3860
7fb460
0c3650
0d3650
8d70d0
4d50d0
6e50d8
6c9088
0c1188
0f110c
fc130f
701206
401406
ENDCHAR
STARTCHAR ch-366
ENCODING 366
SWIDTH 1000 0
DWIDTH 24 0
BBX 24 24 0 -3
BITMAP
0c0180
0c0180
1a0340
198320
10c630
30c41c
20080f
4337f6
7f8000
8c0000
0c1107
0c9fa6
ffd126
0c1126
0d1f26
8dd126
4d9126
6d1f26
6e1126
0c1126
0f9106
fe1106
70171e
40130c
ENDCHAR
STARTCHAR ch-373
ENCODING 373
SWIDTH 1000 0
DWIDTH 24 0
BBX 24 24 0 -3
BITMAP
0c00e0
0c18c0
0af8cc
191ffe
1990cc
11b0cc
303fff
2020cc
7f60cc
4c67fc
8c78cc
0c18c0
ff98c4
0c1ffe
0c18c0
8d58c0
4f58c2
6e5fff
6c30c0
0c30c0
0f68c0
fc4600
7083ff
4300fe
ENDCHAR
STARTCHAR ch-380
ENCODING 380
SWIDTH 1000 0
DWIDTH 24 0
BBX 24 24 0 -3
BITMAP
0c0070
0c0064
1a0066
198062
10d060
30dfff
201060
431060
7f9060
8c17a4
0c1027
0c9026
ffd7a6
0c14ac
0d14ac
8dd4a8
4d94b8
6d3792
6e303a
0c302a
0fa06e
fe6046
704087
408103
ENDCHAR
STARTCHAR ch-382
ENCODING 382
SWIDTH 1000 0
DWIDTH 24 0
BBX 24 24 0 -3
BITMAP
060018
0600fc
0d0fc0
0c80c0
08c0c6
187fff
1060c0
2188c4
3fcffe
4608c4
8608c4
06cffc
7fe8c4
0608c4
468ffc
26e8c4
36c0c0
3680cc
371ffe
0600c0
07c0c0
fe00c6
703fff
400000
ENDCHAR
STARTCHAR ch-396
ENCODING 396
SWIDTH 1000 0
DWIDTH 24 0
BBX 24 24 0 -3
BITMAP
0c1020
0c0c38
1a0630
198646
10ffff
30c240
200240
7f9ffc
4c024c
8c024c
0cbfff
7fc24c
0c024c
0c024c
0d1ffc
8dc640
4d8660
6d0e60
6e0a50
0c1a58
0d924f
fe224e
78c246
400240
ENDCHAR
STARTCHAR ch-404
ENCODING 404
SWIDTH 1000 0
DWIDTH 24 0
BBX 24 24 0 -3
BITMAP
0c01c0
0c1180
1a1186
191fff
11b006
31b008
200820
430c18
7f998c
8c1186
0c2346
0c8320
ffc630
0c041c
0d080f
8d9006
4daff8
6d0c18
6e0c18
0c0c18
0f8c18
fe0c18
700ff8
400c18
ENDCHAR
STARTCHAR ch-406
ENCODING 406
SWIDTH 1000 0
DWIDTH 24 0
BBX 24 24 0 -3
BITMAP
0600e0
0610c4
0d0cc7
0cc6ce
0866c8
1860d0
1000c0
218ffc
3fcc0c
460c0c
860ffc
06cc0c
7fec0c
060c0c
068ffc
46ec0c
26cc0c
368c0c
370ffc
060400
066730
ff8e0c
78180e
406006
ENDCHAR
STARTCHAR ch-407
ENCODING 407
SWIDTH 1000 0
DWIDTH 24 0
BBX 24 24 0 -3
BITMAP
060180
060180
0d0340
0cc320
086630
18641c
100bef
21b006
3fcffc
460c0c
860c0c
06cffc
7fec0c
060c0c
064ffc
466c00
26cc00
368ffc
370b0c
061b0c
07930c
fe230c
70c3fc
40030c
ENDCHAR
STARTCHAR ch-410
ENCODING 410
SWIDTH 1000 0
DWIDTH 24 0
BBX 24 24 0 -3
BITMAP
060040
062070
0d1164
0c99fe
08cd8c
18cd8c
100d8c
21818c
3fc1fc
440180
841980
04fd8c
7f99fe
04198c
04998c
44d98c
25998c
3519fc
36198c
041800
073400
fce3ff
7060fe
404000
ENDCHAR
STARTCHAR ch-423
ENCODING 423
SWIDTH 1000 0
DWIDTH 24 0
BBX 24 24 0 -3
BITMAP
0c1ce7
0c18c6
1a18c6
1918c6
119ffe
319806
200000
7f8006
4c3fff
8c0000
0c880c
ffcffe
0c0c0c
0c0c0c
0d0c0c
8dcffc
4d8010
6d041c
6e0218
0c0330
0cc320
ff0046
787fff
400000
ENDCHAR
STARTCHAR ch-428
ENCODING 428
SWIDTH 1000 0
DWIDTH 24 0
BBX 24 24 0 -3
BITMAP
0c00e0
0c00c0
1a00c6
199fff
10c000
30c418
2007fc
430618
7f8618
8c07f8
0c0000
0c9006
ffdfff
0c1806
0d1806
8dd9e6
4d9926
6d1926
6e1926
0c19e6
0f9806
fe1806
70181e
40180c
ENDCHAR
STARTCHAR ch-429
ENCODING 429
SWIDTH 1000 0
DWIDTH 24 0
BBX 24 24 0 -3
BITMAP
0c0e30
0c0cf8
1a0fc0
198c04
10cc06
30c7fe
200000
4319f8
7f9908
8c1908
0c19f8
0c9908
ffd908
0c19f8
0d1908
8dd908
4d99f8
6d1806
6e1fff
0c0000
0f8410
fe070c
701e06
407006
ENDCHAR
STARTCHAR ch-430
ENCODING 430
SWIDTH 1000 0
DWIDTH 24 0
BBX 24 24 0 -3
BITMAP
0600e0
0600c0
0d00c6
0cdfff
0860c0
1860c0
1007f8
218408
3fc408
4607f8
860408
06c408
7fe7f8
060408
068408
46e7f8
26c000
368006
373fff
060400
07c710
fe0e0c
701806
406006
ENDCHAR
STARTCHAR ch-432
ENCODING 432
SWIDTH 1000 0
DWIDTH 24 0
BBX 24 24 0 -3
BITMAP
0c0008
0c100e
1a0c0c
198618
10c610
30c026
203fff
430410
7f8710
8c0618
0c0608
0c8c0c
ffc80f
0c1006
0d0000
8d8ffc
4d8924
6d0924
6e0924
0c0924
0f8924
fe0924
703fff
400000
ENDCHAR
STARTCHAR ch-441
ENCODING 441
SWIDTH 1000 0
DWIDTH 24 0
BBX 24 24 0 -3
BITMAP
0c0208
0c410e
1a318c
191988
119818
319810
2003fe
460060
7f0060
880060
081866
08ffff
ff9860
081860
0a18d0
8b98c8
4b188c
6a1906
6c1a06
081800
0f1c00
fcf7ff
7061fe
404000
ENDCHAR
STARTCHAR ch-451
ENCODING 451
SWIDTH 1000 0
DWIDTH 24 0
BBX 24 24 0 -3
BITMAP
0c1c80
0c18e0
1a18c0
1918c6
1198ff
31ff80
202080
462160
7f2060
882444
083efe
092490
ffa510
082410
0a2412
8ba5ff
4b2428
6a2428
6c6428
08446c
0f4c44
fccc46
70b887
411902
ENDCHAR
STARTCHAR ch-456
ENCODING 456
SWIDTH 1000 0
DWIDTH 24 0
BBX 24 24 0 -3
BITMAP
0c0070
0c4066
1a27ff
193060
11b060
31b3fc
200264
460264
7f0264
8803fc
083264
08fa64
ff3264
0833fc
093060
89b066
493fff
6a3060
683060
083060
0e3800
fdefff
70c3fe
408000
ENDCHAR
STARTCHAR ch-464
ENCODING 464
SWIDTH 1000 0
DWIDTH 24 0
BBX 24 24 0 -3
BITMAP
0c0204
0c7ffe
1a2244
191224
119224
31860c
200a14
463a74
7f1224
880184
080340
090620
ff8c18
08198f
0a6306
8b0630
4b1860
6a00c4
6c030e
080c1c
0f0038
fc00e0
700380
401c00
ENDCHAR
STARTCHAR ch-465
ENCODING 465
SWIDTH 1000 0
DWIDTH 24 0
BBX 24 24 0 -3
BITMAP
0600e0
0600c0
0d00c6
0cbfff
08c420
18c238
100330
230320
3f9046
4c1fff
8c1806
0d98c6
ffd8c6
0c1bf6
0d18c6
8dd8c6
4d99e6
6d1926
6e1926
0c1926
0d99e6
fe1806
70181e
40180c
ENDCHAR
STARTCHAR ch-470
ENCODING 470
SWIDTH 1000 0
DWIDTH 24 0
BBX 24 24 0 -3
BITMAP
001c00
20180c
3ffffe
304100
3ffffc
304104
304104
3ffffc
330300
23f3f0
230302
630303
5fd9ff
8e3c00
007200
00c180
03fff0
1c183f
e01806
0ffff0
021840
011886
ffffff
000000
ENDCHAR
STARTCHAR ch-471
ENCODING 471
SWIDTH 1000 0
DWIDTH 24 0
BBX 24 24 0 -3
BITMAP
0c2200
0c3f06
1a24ff
192446
11a446
31bf4c
20212c
422128
7f3f18
882410
082438
09242f
ffbf46
082086
0a0000
8b81c0
4b018c
6a3ffe
6c0180
080180
0f0180
fc0186
707fff
400000
ENDCHAR
STARTCHAR ch-472
ENCODING 472
SWIDTH 1000 0
DWIDTH 24 0
BBX 24 24 0 -3
BITMAP
0c0630
0c3422
1a243f
192462
11a456
31a494
20254c
462468
7f2410
883c20
082440
09048c
ff840c
0805ff
0a7c0c
8b248c
4b244c
6a246c
6c246c
08640c
0f440c
fc440c
70847c
400418
ENDCHAR
STARTCHAR ch-477
ENCODING 477
SWIDTH 1000 0
DWIDTH 24 0
BBX 24 24 0 -3
BITMAP
0c0418
0c07fc
1a0618
198618
10c7f8
30c618
200618
4307f8
7f8000
8c1ffe
0c1122
0c9122
ffdffe
0c0000
0d000c
8ddffe
4d840c
6d0218
6e0330
0c01e0
0f80e0
fe01bc
70061f
403806
ENDCHAR
STARTCHAR ch-481
ENCODING 481
SWIDTH 1000 0
DWIDTH 24 0
BBX 24 24 0 -3
BITMAP
0600e0
0600c0
0d00cc
0ccffe
086010
186418
100310
218126
3fdfff
460000
860000
06cffc
7fec0c
060c0c
068ffc
46ec0c
26cc0c
368ffc
370460
060762
07c662
fe0c63
78187f
40e03e
ENDCHAR
STARTCHAR ch-484
ENCODING 484
SWIDTH 1000 0
DWIDTH 24 0
BBX 24 24 0 -3
BITMAP
0c00e0
0c00c0
1a0ffc
1908c4
1188c4
31bfff
2008c4
4308c4
7f8ffc
8c00c0
0c1ffe
0c90c2
ffd0c2
0c1ffe
0d0180
8dc302
4dbfff
6d0218
6e0610
0c0fa0
0f8cf0
fe019c
70060e
403806
ENDCHAR
STARTCHAR ch-485
ENCODING 485
SWIDTH 1000 0
DWIDTH 24 0
BBX 24 24 0 -3
BITMAP
0c00e0
0c10c0
1a10c6
191fff
11b006
31b004
200800
460fff
7f0c20
880820
081946
0919ff
ffb986
085986
0a1986
8b9986
4b19fe
6a1986
6c1986
081986
0f1986
fc19fe
701986
401986
ENDCHAR
STARTCHAR ch-488
ENCODING 488
SWIDTH 1000 0
DWIDTH 24 0
BBX 24 24 0 -3
BITMAP
07000c
06223e
fff3e0
060300
7fe300
462306
4623ff
7fe318
462318
462218
7fe218
060418
fff018
061c18
063600
00c180
03fff0
1c183f
e01806
0ffff0
021840
011886
ffffff
000000
ENDCHAR
ENDFONT
